<svg xmlns="http://www.w3.org/2000/svg" width="35" height="34.126" viewBox="0 0 35 34.126">
  <path id="github-brands" d="M11.707,35.478c0,.141-.162.254-.367.254-.233.021-.4-.092-.4-.254,0-.141.162-.254.367-.254C11.523,35.2,11.707,35.316,11.707,35.478ZM9.512,35.16c-.049.141.092.3.3.346a.331.331,0,0,0,.438-.141c.042-.141-.092-.3-.3-.367A.362.362,0,0,0,9.512,35.16Zm3.119-.12c-.2.049-.346.183-.325.346.021.141.2.233.416.183s.346-.183.325-.325S12.836,35.019,12.631,35.04ZM17.274,8A16.921,16.921,0,0,0,0,25.218,17.691,17.691,0,0,0,11.961,42.1c.9.162,1.221-.4,1.221-.854,0-.437-.021-2.851-.021-4.333,0,0-4.94,1.058-5.977-2.1,0,0-.8-2.053-1.962-2.583,0,0-1.616-1.108.113-1.087a3.725,3.725,0,0,1,2.724,1.821A3.73,3.73,0,0,0,13.2,34.433a3.922,3.922,0,0,1,1.129-2.378c-3.945-.438-7.924-1.009-7.924-7.8A5.348,5.348,0,0,1,8.073,20.1a6.667,6.667,0,0,1,.183-4.791c1.475-.459,4.869,1.905,4.869,1.905a16.67,16.67,0,0,1,8.863,0s3.394-2.371,4.869-1.905A6.664,6.664,0,0,1,27.04,20.1a5.485,5.485,0,0,1,1.821,4.156c0,6.809-4.156,7.353-8.1,7.8a4.173,4.173,0,0,1,1.2,3.274c0,2.378-.021,5.321-.021,5.9,0,.459.325,1.016,1.221.854A17.528,17.528,0,0,0,35,25.218C35,15.43,27.061,8,17.274,8ZM6.859,32.338c-.092.071-.071.233.049.367.113.113.275.162.367.071.092-.071.071-.233-.049-.367C7.113,32.3,6.951,32.246,6.859,32.338ZM6.1,31.766c-.049.092.021.2.162.275a.21.21,0,0,0,.3-.049c.049-.092-.021-.2-.162-.275C6.259,31.674,6.146,31.7,6.1,31.766Zm2.286,2.512c-.113.092-.071.3.092.438.162.162.367.183.459.071.092-.092.049-.3-.092-.438C8.686,34.186,8.475,34.165,8.383,34.278Zm-.8-1.037c-.113.071-.113.254,0,.416s.3.233.4.162a.322.322,0,0,0,0-.437c-.1-.162-.282-.233-.4-.141Z" transform="translate(0 -8)" fill="#484848"/>
</svg>
