<svg xmlns="http://www.w3.org/2000/svg" width="35" height="34.992" viewBox="0 0 35 34.992">
  <path id="instagram-brands" d="M17.429,40.35A8.972,8.972,0,1,0,26.4,49.321,8.957,8.957,0,0,0,17.429,40.35Zm0,14.8a5.833,5.833,0,1,1,5.833-5.833,5.843,5.843,0,0,1-5.833,5.833ZM28.86,39.983a2.093,2.093,0,1,1-2.093-2.093A2.088,2.088,0,0,1,28.86,39.983ZM34.8,42.106c-.133-2.8-.773-5.286-2.827-7.332s-4.529-2.686-7.332-2.827c-2.889-.164-11.548-.164-14.437,0-2.8.133-5.278.773-7.332,2.819S.189,39.3.048,42.1c-.164,2.889-.164,11.548,0,14.437.133,2.8.773,5.286,2.827,7.332s4.529,2.686,7.332,2.827c2.889.164,11.548.164,14.437,0,2.8-.133,5.286-.773,7.332-2.827s2.686-4.529,2.827-7.332C34.966,53.647,34.966,45,34.8,42.106ZM31.07,59.636a5.905,5.905,0,0,1-3.326,3.326c-2.3.914-7.769.7-10.315.7s-8.019.2-10.315-.7a5.905,5.905,0,0,1-3.326-3.326c-.914-2.3-.7-7.769-.7-10.315s-.2-8.019.7-10.315A5.905,5.905,0,0,1,7.114,35.68c2.3-.914,7.769-.7,10.315-.7s8.019-.2,10.315.7a5.905,5.905,0,0,1,3.326,3.326c.914,2.3.7,7.769.7,10.315S31.983,57.34,31.07,59.636Z" transform="translate(0.075 -31.825)" fill="#d649d1"/>
</svg>
